# xmcd
#
# Track frame offsets:
#	150
#	20357
#	38497
#	59370
#	78720
#	92192
#	126700
#	143807
#	165477
#	180355
#	222132
#
# Disc length: 3211 seconds
#
# Revision: 0
# Processed by: cddbd v1.5PL3 Copyright (c) Steve Scherf et al.
# Submitted via: dBpowerAMP V4.0
#
DISCID=920c890b
DTITLE=The Buttless Chaps - Death Scenes I II III
DYEAR=2001
DGENRE=Country
TTITLE0=Midnite Cowpoke
TTITLE1=Death Scenes I II III
TTITLE2=Six Strong Men
TTITLE3=Death on the Plain
TTITLE4=Tracks Tonight
TTITLE5=Malone
TTITLE6=In My Fingertips
TTITLE7=Elevator
TTITLE8=Hired Hand
TTITLE9=Fastest Gun
TTITLE10=Disco Dancer
EXTD=
EXTT0=
EXTT1=
EXTT2=
EXTT3=
EXTT4=
EXTT5=
EXTT6=
EXTT7=
EXTT8=
EXTT9=
EXTT10=
PLAYORDER=
